<mxfile host="app.diagrams.net" modified="2024-03-22T07:23:51.514Z" agent="Mozilla/5.0 (Windows NT 10.0; Win64; x64; rv:124.0) Gecko/20100101 Firefox/124.0" etag="sbO3p4rz1xLuVW20-aG4" version="24.0.7" type="github">
  <diagram name="Seite-1" id="V_nagjtcnbyvWymt-Ths">
    <mxGraphModel dx="989" dy="539" grid="1" gridSize="10" guides="1" tooltips="1" connect="1" arrows="1" fold="1" page="1" pageScale="1" pageWidth="827" pageHeight="1169" math="0" shadow="0">
      <root>
        <mxCell id="0" />
        <mxCell id="1" parent="0" />
        <mxCell id="n4093YqHTNLRRz31_CPD-1" value="&lt;font style=&quot;font-size: 30px;&quot;&gt;-&lt;/font&gt;" style="ellipse;whiteSpace=wrap;html=1;aspect=fixed;" vertex="1" parent="1">
          <mxGeometry x="40" y="280" width="80" height="80" as="geometry" />
        </mxCell>
        <mxCell id="n4093YqHTNLRRz31_CPD-8" value="&lt;span style=&quot;left: 156.508px; top: 959.48px; font-size: 30px; font-family: sans-serif; transform: scaleX(1.01193);&quot; role=&quot;presentation&quot; dir=&quot;ltr&quot;&gt;φ&lt;/span&gt;AB" style="ellipse;whiteSpace=wrap;html=1;aspect=fixed;fontSize=30;" vertex="1" parent="1">
          <mxGeometry x="160" y="200" width="80" height="80" as="geometry" />
        </mxCell>
        <mxCell id="n4093YqHTNLRRz31_CPD-9" value="&lt;span style=&quot;left: 156.508px; top: 959.48px; font-size: 30px; font-family: sans-serif; transform: scaleX(1.01193);&quot; role=&quot;presentation&quot; dir=&quot;ltr&quot;&gt;φ&lt;/span&gt;AC" style="ellipse;whiteSpace=wrap;html=1;aspect=fixed;fontSize=30;" vertex="1" parent="1">
          <mxGeometry x="160" y="360" width="80" height="80" as="geometry" />
        </mxCell>
        <mxCell id="n4093YqHTNLRRz31_CPD-11" value="ABD" style="ellipse;whiteSpace=wrap;html=1;aspect=fixed;fontSize=30;" vertex="1" parent="1">
          <mxGeometry x="280" y="200" width="80" height="80" as="geometry" />
        </mxCell>
        <mxCell id="n4093YqHTNLRRz31_CPD-12" value="ACD" style="ellipse;whiteSpace=wrap;html=1;aspect=fixed;fontSize=30;" vertex="1" parent="1">
          <mxGeometry x="280" y="360" width="80" height="80" as="geometry" />
        </mxCell>
        <mxCell id="n4093YqHTNLRRz31_CPD-15" value="BDE" style="ellipse;whiteSpace=wrap;html=1;aspect=fixed;fontSize=30;" vertex="1" parent="1">
          <mxGeometry x="400" y="200" width="80" height="80" as="geometry" />
        </mxCell>
        <mxCell id="n4093YqHTNLRRz31_CPD-16" value="CDF" style="ellipse;whiteSpace=wrap;html=1;aspect=fixed;fontSize=30;" vertex="1" parent="1">
          <mxGeometry x="400" y="360" width="80" height="80" as="geometry" />
        </mxCell>
        <mxCell id="n4093YqHTNLRRz31_CPD-17" value="DE&lt;span dir=&quot;ltr&quot; role=&quot;presentation&quot; style=&quot;left: 156.508px; top: 959.48px; font-size: 30px; font-family: sans-serif; transform: scaleX(1.01193);&quot;&gt;ψ&lt;/span&gt;" style="ellipse;whiteSpace=wrap;html=1;aspect=fixed;fontSize=30;" vertex="1" parent="1">
          <mxGeometry x="520" y="200" width="80" height="80" as="geometry" />
        </mxCell>
        <mxCell id="n4093YqHTNLRRz31_CPD-18" value="DF&lt;span dir=&quot;ltr&quot; role=&quot;presentation&quot; style=&quot;left: 156.508px; top: 959.48px; font-size: 30px; font-family: sans-serif; transform: scaleX(1.01193);&quot;&gt;ψ&lt;/span&gt;" style="ellipse;whiteSpace=wrap;html=1;aspect=fixed;fontSize=30;" vertex="1" parent="1">
          <mxGeometry x="520" y="360" width="80" height="80" as="geometry" />
        </mxCell>
        <mxCell id="n4093YqHTNLRRz31_CPD-19" value="" style="endArrow=classic;html=1;rounded=0;curved=1;exitX=1;exitY=0.5;exitDx=0;exitDy=0;" edge="1" parent="1">
          <mxGeometry width="50" height="50" relative="1" as="geometry">
            <mxPoint x="240" y="399.58" as="sourcePoint" />
            <mxPoint x="280" y="399.58" as="targetPoint" />
          </mxGeometry>
        </mxCell>
        <mxCell id="n4093YqHTNLRRz31_CPD-20" value="" style="endArrow=classic;html=1;rounded=0;curved=1;exitX=1;exitY=0.5;exitDx=0;exitDy=0;" edge="1" parent="1">
          <mxGeometry width="50" height="50" relative="1" as="geometry">
            <mxPoint x="360" y="399.65999999999997" as="sourcePoint" />
            <mxPoint x="400" y="399.65999999999997" as="targetPoint" />
          </mxGeometry>
        </mxCell>
        <mxCell id="n4093YqHTNLRRz31_CPD-21" value="" style="endArrow=classic;html=1;rounded=0;curved=1;exitX=1;exitY=0.5;exitDx=0;exitDy=0;" edge="1" parent="1">
          <mxGeometry width="50" height="50" relative="1" as="geometry">
            <mxPoint x="480" y="399.65999999999997" as="sourcePoint" />
            <mxPoint x="520" y="399.65999999999997" as="targetPoint" />
          </mxGeometry>
        </mxCell>
        <mxCell id="n4093YqHTNLRRz31_CPD-22" value="" style="endArrow=classic;html=1;rounded=0;curved=1;exitX=1;exitY=0.5;exitDx=0;exitDy=0;" edge="1" parent="1">
          <mxGeometry width="50" height="50" relative="1" as="geometry">
            <mxPoint x="240" y="239.65999999999997" as="sourcePoint" />
            <mxPoint x="280" y="239.65999999999997" as="targetPoint" />
          </mxGeometry>
        </mxCell>
        <mxCell id="n4093YqHTNLRRz31_CPD-23" value="" style="endArrow=classic;html=1;rounded=0;curved=1;exitX=1;exitY=0.5;exitDx=0;exitDy=0;" edge="1" parent="1">
          <mxGeometry width="50" height="50" relative="1" as="geometry">
            <mxPoint x="360" y="239.65999999999997" as="sourcePoint" />
            <mxPoint x="400" y="239.65999999999997" as="targetPoint" />
          </mxGeometry>
        </mxCell>
        <mxCell id="n4093YqHTNLRRz31_CPD-24" value="" style="endArrow=classic;html=1;rounded=0;curved=1;exitX=1;exitY=0.5;exitDx=0;exitDy=0;" edge="1" parent="1">
          <mxGeometry width="50" height="50" relative="1" as="geometry">
            <mxPoint x="480" y="239.65999999999997" as="sourcePoint" />
            <mxPoint x="520" y="239.65999999999997" as="targetPoint" />
          </mxGeometry>
        </mxCell>
        <mxCell id="n4093YqHTNLRRz31_CPD-25" value="" style="endArrow=classic;html=1;rounded=0;curved=1;exitX=1;exitY=0.5;exitDx=0;exitDy=0;entryX=0;entryY=1;entryDx=0;entryDy=0;" edge="1" parent="1" target="n4093YqHTNLRRz31_CPD-8">
          <mxGeometry width="50" height="50" relative="1" as="geometry">
            <mxPoint x="120" y="319.65999999999997" as="sourcePoint" />
            <mxPoint x="160" y="319.65999999999997" as="targetPoint" />
          </mxGeometry>
        </mxCell>
        <mxCell id="n4093YqHTNLRRz31_CPD-26" value="" style="endArrow=classic;html=1;rounded=0;curved=1;exitX=1;exitY=0.5;exitDx=0;exitDy=0;entryX=0;entryY=0;entryDx=0;entryDy=0;" edge="1" parent="1" target="n4093YqHTNLRRz31_CPD-9">
          <mxGeometry width="50" height="50" relative="1" as="geometry">
            <mxPoint x="120" y="319.65999999999997" as="sourcePoint" />
            <mxPoint x="160" y="319.65999999999997" as="targetPoint" />
          </mxGeometry>
        </mxCell>
        <mxCell id="n4093YqHTNLRRz31_CPD-27" value="" style="endArrow=classic;html=1;rounded=0;curved=1;exitX=0.5;exitY=0;exitDx=0;exitDy=0;entryX=0.5;entryY=0;entryDx=0;entryDy=0;" edge="1" parent="1" source="n4093YqHTNLRRz31_CPD-17" target="n4093YqHTNLRRz31_CPD-1">
          <mxGeometry width="50" height="50" relative="1" as="geometry">
            <mxPoint x="570" y="179.99999999999997" as="sourcePoint" />
            <mxPoint x="610" y="179.99999999999997" as="targetPoint" />
            <Array as="points">
              <mxPoint x="80" y="120" />
            </Array>
          </mxGeometry>
        </mxCell>
        <mxCell id="n4093YqHTNLRRz31_CPD-28" value="" style="endArrow=classic;html=1;rounded=0;curved=1;exitX=0.5;exitY=1;exitDx=0;exitDy=0;entryX=0.5;entryY=1;entryDx=0;entryDy=0;" edge="1" parent="1" source="n4093YqHTNLRRz31_CPD-18" target="n4093YqHTNLRRz31_CPD-1">
          <mxGeometry width="50" height="50" relative="1" as="geometry">
            <mxPoint x="320" y="380" as="sourcePoint" />
            <mxPoint x="360" y="380" as="targetPoint" />
            <Array as="points">
              <mxPoint x="70" y="520" />
            </Array>
          </mxGeometry>
        </mxCell>
      </root>
    </mxGraphModel>
  </diagram>
</mxfile>
